<svg width="1024" height="1024" version="1.1" viewBox="0 0 270.93 270.93" xmlns="http://www.w3.org/2000/svg"><g transform="matrix(1.3196 0 0 1.3174 -41.199 -41.13)" style="stroke-width:.75845"><circle cx="133.88" cy="133.88" r="102.66" style="fill:#115a64;paint-order:stroke fill markers"/><path d="m133.88 31.221a102.66 102.66 0 0 0-102.66 102.66 102.66 102.66 0 0 0 8.0682 39.071 114.12 69.036 0 0 1 96.163-31.885 114.12 69.036 0 0 1 93.883 29.795 102.66 102.66 0 0 0 7.2021-36.98 102.66 102.66 0 0 0-102.66-102.66z" style="fill:#91d5ee;paint-order:stroke fill markers;stroke-linejoin:round;stroke-width:.40134"/><g transform="matrix(1.4158 0 0 1.4158 -50.495 -52.212)" style="stroke-width:.5357"><path d="m137.18 83.842c-1.3624 0.06464-2.6647 0.73191-3.2034 1.8082l-0.99426 0.26665 0.56844 0.98444v3.6861h-0.54208l-1.3627 0.78652v4.1326l0.9524 0.91829-0.0677 26.971 5.4167-0.032h-0.82889v-0.91313h1.7198v0.90796l5.1372-0.0305-1.2878-27.239 0.71882-0.71882v-4.1114l-1.4206-0.82062h-0.94103v-3.4287l0.31988-1.1932-0.62064-0.1664c-0.77922-1.3348-2.2017-1.8728-3.5641-1.8082zm1.6583 39.517-0.8909 5e-3h0.8909zm-2.6262-36.211h2.3213v1.5989h-2.3213zm2.483 0.02584h1.6412v1.6071h-1.6412zm1.8707 0.12764h0.38241v1.326h-0.38241zm-6.7092 0.05064h0.4594v1.7177h-0.4594zm0.62115 0.06821h1.4454v1.386h-1.4454zm1.743 1.4707h2.3296v1.7348h-2.3296zm2.5595 0.03411h1.5048v1.6924h-1.5048zm-4.3625 0.05116h1.4712v1.5984h-1.4712zm6.0203 0.06821h0.4594v1.5219h-0.4594zm-6.598 0.19534h0.493v1.3689h-0.493zm2.6681 7.5039h1.9844v1.9844h-1.9844zm0.0651 2.6603h1.9844v1.9844h-1.9844zm0.0667 2.7311h1.9844v1.9844h-1.9844zm0.0589 2.4278h1.9844v1.9844h-1.9844zm0.0641 2.6241h1.9844v1.9844h-1.9844zm0.06 2.5818h1.8521v1.8521h-1.8521zm0.0667 2.5823h1.8521v1.8521h-1.8521zm0.0594 2.4526h1.8521v1.8521h-1.8521zm0.0625 2.6877h1.8521v1.8521h-1.8521zm0.0615 2.5094h1.8521v1.8521h-1.8521z" style="fill:#10323c;paint-order:stroke fill markers;stroke-linejoin:round;stroke-width:2.2678;stroke:#fff"/><path d="m130.76 123.76-0.0186 2.4231-51.906 0.17467-0.01447 0.65319-1.6702 0.13435 1.7084 2.3389-0.02377 7.552c46.239-5.6177 49.586-3.202 76.624-4.0886l-0.0718-5.2312 1.2506-0.0362v-3.9202zm11.339 2.4582h2.4851v4.1067h-2.4851zm3.9176 0.0212h2.5482v4.1491h-2.5482zm-7.7504 0.063h2.4427v4.1491h-2.4427zm-3.8122 0.0212h2.4221v4.0855h-2.4221zm-14.006 2.064h2.2743v4.0018h-2.2743zm-3.3486 0.14727h2.6536v4.1072h-2.6536zm-8.5721 0.0424h2.4639v4.2333h-2.4639zm-5.1599 0.0842h2.4009v4.191h-2.4009zm8.3819 0.10542h2.5275v4.1279h-2.5275zm-23.408 0.0641h2.5616v4.4855h-2.5616zm3.1264 0.0202h2.8014v4.4225h-2.8014zm8.6987 0.0419h2.2955v4.1279h-2.2955zm-5.5604 0.0424h2.6117v4.3382h-2.6117z" style="fill:#10323c;paint-order:stroke fill markers;stroke-linejoin:round;stroke-width:2.2678;stroke:#fff"/></g><g transform="matrix(1.4158 0 0 1.4158 -50.495 -52.212)" style="stroke-width:.5357"><path d="m141.52 132.74c-17.015 0.0682-41.908 1.1152-62.68 4.3037-1.0366 0.15912-9.8383 2.0616-19.867 7.2466a72.509 72.509 0 0 0 5.1614 16.48c1.4993-0.0313 16.012-0.33347 23.869-0.39967 6.6238-6.5683 52.832-27.875 80.712 0h27.761c0.68498-1.5133 2.1244-4.9654 3.4467-9.5819a72.509 72.509 0 0 0 1.5677-6.5302c0.1725-0.90202 0.31544-1.8483 0.45734-2.7951a72.509 72.509 0 0 0 0.4234-5.3768c-9.3884-1.1666-33.078-2.5276-46.908-3.1313-3.4762-0.15174-8.2724-0.2377-13.944-0.21498z" style="fill-opacity:.98804;fill:#00ac6f;stroke-width:.14174"/></g><g style="stroke-width:.75845"><path d="m171.27 166.6c9.9666 6.0858 1.7091 21.994-14.344 12.873-13.711-7.7908-27.774-5.0317-27.774-5.0317s28.903 11.08 37.739 12.333c3.1691-0.23971 19.871 0.5382 13.963-14.558-2.9305-2.2217-6.21-4.022-9.5848-5.6154z" style="fill:#12818c;stroke-width:.20067"/><path d="m46.799 188.07c2.3058-0.11915 16.398-0.8768 22.325-2.5792 1.949-0.55981 5.0333-3.4168 5.0333-3.4168l-30.657-0.0439a102.66 102.66 0 0 0 3.298 6.0399z" style="fill:#12818c;stroke-width:.20067"/><path d="m69.553 213.64c4.9358-0.0975 34.755-1.03 32.818-10.417-1.0036-4.863-13.899-2.8629-13.899-2.8629s3.3793 1.4931 2.7704 1.9394c-5.9728 4.378-26.935 2.3954-31.897 1.8624a102.66 102.66 0 0 0 10.208 9.4785z" style="fill:#12818c;stroke-width:.20067"/><path d="m81.912 222.17c4.381-0.42361 25.703-2.9658 42.669-14.751-1.2961-0.72608-2.4726-1.1687-3.7863-1.1085-11.596 7.3292-35.639 14.571-39.274 15.646a102.66 102.66 0 0 0 0.39067 0.21343z" style="fill:#12818c;stroke-width:.20067"/><path d="m92.528 227.74c23.692-2.8258 19.321-6.209 48.72-16.035-22.362-8.3087-18.283-7.8046-31.671-10.448 0.5899 13.581-27.09 15.914-34.776 16.303a102.66 102.66 0 0 0 6.7205 4.3946c3.6346-1.0748 27.677-8.3169 39.274-15.646 1.3137-0.0602 2.4902 0.38238 3.7863 1.1085-16.966 11.785-38.288 14.327-42.669 14.751a102.66 102.66 0 0 0 10.616 5.5728z" style="fill:#10323c;stroke-width:.20067"/><path d="m121.77 236.83c-1.1e-4 8e-5 -0.0124 9e-3 -0.0124 9e-3s0.34204 0.0204 0.50953 0.0439c-0.16086-0.02-0.33763-0.032-0.49713-0.0527z" style="fill:#12818c;stroke-width:.20067"/><path d="m125.64 235.95c19.636-8.7827 39.965-12.263 53.583-13.953-3.1536-0.81507-3.8714-1.2245-5.871-1.2335-25.331-0.11205-44.754 11.516-50.039 15.02a102.66 102.66 0 0 0 2.327 0.1664z" style="fill:#12818c;stroke-width:.20067"/><path d="m190.63 219.31c-17.238 0.24026-27.54-2.8661-35.599-3.682-27.516 3.2999-34.824 11.195-52.962 15.674a102.66 102.66 0 0 0 21.25 4.4814c5.2856-3.5036 24.708-15.132 50.039-15.02 1.9996 9e-3 2.7174 0.41844 5.871 1.2335-13.619 1.6898-33.947 5.1699-53.583 13.953a102.66 102.66 0 0 0 8.2377 0.58911 102.66 102.66 0 0 0 56.747-17.229z" style="fill:#10323c;stroke-width:.20067"/><path d="m209.61 202.96c-7.8945 1.1126-34.475 3.6825-66.989-6.4027-19.017-5.8989-31.738-15.801-69.873-7.0528-8.2498 1.8926-21.021 2.5449-23.153 2.6484a102.66 102.66 0 0 0 5.5273 7.384c3.0314-0.0471 14.073-0.38058 27.551-2.9797 5.233-1.0091 21.854-5.7378 50.674 7.4445 22.331 10.214 57.298 10.565 63.63 10.552a102.66 102.66 0 0 0 12.631-11.594z" style="fill:#12818c;stroke-width:.20067"/><path d="m219.33 190.6c-6.5405 1.0429-45.992 6.7889-69.354-4.0473-50.785-23.556-70.648-2.7704-70.648-2.7704s26.276-7.0461 63.629 8.3116c26.659 10.961 66.096 6.7653 70.577 6.2482a102.66 102.66 0 0 0 5.7955-7.7422z" style="fill:#12818c;stroke-width:.20067"/><path d="m224.21 182.12-35.55-0.18604s1.1983 3.3204-3.004 6.9221c18.512 0.46423 31.6-1.8551 36.567-3.098a102.66 102.66 0 0 0 1.9864-3.638z" style="fill:#10323c;stroke-width:.20067"/><path d="m227.67 174.83c-0.56493 1.3246-1.1731 2.6285-1.7927 3.9269 0.013-3.5e-4 0.1484-3e-3 0.1602-3e-3 0.64424-1.2948 1.261-2.603 1.85-3.9238zm0 0h-39.305c-39.472-39.466-104.89-9.2994-114.27 0-11.143 0.0939-31.773 0.52368-33.838 0.56689 0.49644 1.1336 0.99673 2.2649 1.5338 3.3796h36.941s13.125-9.9303 33.046-7.8491c7.6897-1.6496 15.757-2.872 24.029-3.3636 9.3082-0.55328 18.837-0.21876 28.276 1.3596-16.414-9.5451-53.697-6.0313-70.55-0.99994 8.972-7.3224 49.643-14.52 77.67-1.2873-0.0229-0.014-0.0384-0.0316-0.0615-0.0455 4.2388 1.6562 7.8336 4.2992 11.296 7.1484 3.9723 1.4568 7.8875 3.1878 11.72 5.226 12.816 0.29319 29.638-0.15104 31.723-0.20826 0.61953-1.2984 1.2277-2.6023 1.7927-3.9269zm-33.515 4.1352c-3.8327-2.0383-7.7479-3.7693-11.72-5.226 1.8298 1.5186 3.5506 3.1704 5.1232 4.9883 1.9618 0.11233 4.2306 0.18358 6.597 0.23771zm-30.074-10.042c-9.4393-1.5784-18.968-1.9129-28.276-1.3596-8.2716 0.49167-16.339 1.714-24.029 3.3636 2.3518 0.24569 4.7772 0.62089 7.3086 1.2387 21.85-6.925 34.263 1.0825 37.69 2.4665 11.799 4.7663 16.59-0.31057 7.3065-5.7092zm-122.29 9.8531c-0.53703-1.1147-1.0373-2.2461-1.5338-3.3796-0.01382 2.9e-4 -0.16718 3e-3 -0.17932 4e-3 0.5292 1.1353 1.0791 2.2608 1.6495 3.376z" style="fill:#10323c;stroke-width:.20067"/></g><path d="m85.691 43.233c-15.622 8.3793-28.943 20.524-38.409 35.512 4.9258 7.1525 13.254 11.672 21.939 11.691 14.613-1e-6 26.458-11.846 26.458-26.458-0.0023-8.0292-3.7216-15.725-9.9883-20.745z" style="fill:#e8c856;paint-order:stroke fill markers;stroke-linejoin:round;stroke-width:.40135"/><path d="m158.82 51.516c5.4324-0.82002 8.5729 9.0261 8.5729 9.0261s3.4484-7.2236 8.2221-7.7139c-5.5528-0.6484-5.4978 3.099-7.9773 5.2018-3.6008-4.8772-2.3997-7.7079-8.8178-6.514z" style="fill:#7b838e;paint-order:stroke fill markers"/><path d="m102.74 76.382c7.2024 1.1528 8.3579 6.6546 8.3579 6.6546s4.4938-6.1001 8.0159-5.6871c-4.4455-0.89503-5.9705 2.538-7.6432 3.8351-3.5105-3.5958-3.099-5.2062-8.7306-4.8025z" style="fill:#7b838e;paint-order:stroke fill markers"/></g></svg>
